# xmcd
#
# Track frame offsets: 
#        183
#        26515
#        45688
#        66785
#        82763
#        104510
#        122430
#        159803
#        172533
#        198003
#        218743
#        233238
#        248875
#        272085
#
# Disc length: 4072 seconds
#
# Revision: 8
# Processed by: cddbd v1.5.2PL0 Copyright (c) Steve Scherf et al.
# Submitted via: ExactAudioCopyFreeDBPlugin 1.0
#
DISCID=a50fe60e
DTITLE=Blues Traveler - Save His Soul
DYEAR=1993
DGENRE=Blues
TTITLE0=Trina Magna
TTITLE1=Love and Greed
TTITLE2=Letter From a Friend
TTITLE3=Believe Me
TTITLE4=Go Outside and Drive
TTITLE5=Defense and Desire
TTITLE6=Whoops
TTITLE7=Manhattan Bridge
TTITLE8=Love of My Life
TTITLE9=NY Prophesie
TTITLE10=Save His Soul
TTITLE11=Bullshitter's Lament
TTITLE12=Conquer Me
TTITLE13=Fledgling
EXTD=
EXTT0=
EXTT1=
EXTT2=
EXTT3=
EXTT4=
EXTT5=
EXTT6=
EXTT7=
EXTT8=
EXTT9=
EXTT10=
EXTT11=
EXTT12=
EXTT13=
PLAYORDER=
